<?xml version="1.0" encoding="utf-8"?>
<!-- Generator: Adobe Illustrator 27.3.1, SVG Export Plug-In . SVG Version: 6.00 Build 0)  -->
<svg version="1.1" id="Layer_1" xmlns="http://www.w3.org/2000/svg" xmlns:xlink="http://www.w3.org/1999/xlink" x="0px" y="0px"
	 viewBox="0 0 53.2 53.1" style="enable-background:new 0 0 53.2 53.1;" xml:space="preserve">
<style type="text/css">
	.st0{fill:#EE7623;}
</style>
<g>
	<path class="st0" d="M38,37.9V15.2H23.4c6.1,1.7,10.4,5,10.5,9.2c0.3,10.3-18.2,13.5-18.2,13.5H38L38,37.9z M19.2,15.4
		c1.9,1,3.3,2.6,4.1,4.6c0.3,0.7,0.5,1.5,0.6,2.3c1.9,0.2,3.8,0.6,5.6,1l0,0C28.6,19.4,25.1,16.4,19.2,15.4z M17,15.7
		c0.7,2,1.1,4.1,1.2,6.1c1.7,0.1,3.2,0.2,4.6,0.3c-0.2-0.9-0.5-1.8-0.9-2.7C20.9,17.6,19.1,16.2,17,15.7L17,15.7L17,15.7z
		 M15.2,36.3c2.6-1.3,4.7-3.5,6.1-6c-2.3,0.2-4,0.3-4,0.3C16.8,32.5,16.1,34.4,15.2,36.3L15.2,36.3L15.2,36.3z M21.8,29.2
		c0.9-1.9,1.2-3.9,1.1-6c-1.6-0.2-3.2-0.3-4.7-0.4c0,2-0.2,4.1-0.6,6.1c0,0.2,0,0.3-0.1,0.5h0.3C19.2,29.4,20.4,29.3,21.8,29.2
		L21.8,29.2z M17.1,36.4c5-0.7,9.2-3.8,11.2-7.2c-1.9,0.4-3.8,0.7-5.8,0.9C21.3,32.6,19.5,34.8,17.1,36.4L17.1,36.4z M32.2,27.8
		c-0.8,0.4-1.7,0.7-2.5,0.9c-0.9,1.9-2.3,3.5-4,4.8C28.7,31.9,31,29.9,32.2,27.8C32.1,27.8,32.2,27.8,32.2,27.8z M32.7,26
		c0-0.5-0.8-0.9-2.2-1.4l0,0c0,1-0.1,2-0.5,3C31.7,27.1,32.7,26.6,32.7,26L32.7,26z M30.4,23.6L30.4,23.6c0.9,0.3,1.7,0.6,2.4,1.1
		c0,0,0-0.1,0-0.2c-0.2-2.8-2.4-5.2-5.9-6.9C28.9,19.3,30.1,21.3,30.4,23.6L30.4,23.6z M23.9,23.3c0.1,2-0.3,3.9-1,5.7
		c2-0.3,4-0.6,5.9-1.1c0.5-1.2,0.8-2.4,0.7-3.6C27.7,23.9,25.8,23.5,23.9,23.3L23.9,23.3L23.9,23.3z"/>
</g>
</svg>
