<?xml version="1.0" encoding="utf-8"?>
<!-- Generator: Adobe Illustrator 27.3.1, SVG Export Plug-In . SVG Version: 6.00 Build 0)  -->
<svg version="1.1" id="Layer_1" xmlns="http://www.w3.org/2000/svg" xmlns:xlink="http://www.w3.org/1999/xlink" x="0px" y="0px"
	 viewBox="0 0 54 54" style="enable-background:new 0 0 54 54;" xml:space="preserve">
<style type="text/css">
	
		.st0{fill-rule:evenodd;clip-rule:evenodd;fill:#EEBC99;stroke:#373435;stroke-width:5.426404e-02;stroke-linecap:round;stroke-linejoin:round;stroke-miterlimit:468.7505;}
	
		.st1{fill-rule:evenodd;clip-rule:evenodd;fill:#FF3D00;stroke:#373435;stroke-width:5.426404e-02;stroke-linecap:round;stroke-linejoin:round;stroke-miterlimit:468.7505;}
	
		.st2{fill-rule:evenodd;clip-rule:evenodd;fill:#EDEAE3;stroke:#373435;stroke-width:5.426404e-02;stroke-linecap:round;stroke-linejoin:round;stroke-miterlimit:468.7505;}
</style>
<g id="Layer_x0020_1">
	<g id="_171900416">
		<path id="_171901328" d="M34.6,28c-0.2,0-0.4,0.2-0.4,0.4c0,0.2,0.2,0.4,0.4,0.4h12v17.4H8.2V28.8h12c0.2,0,0.4-0.2,0.4-0.4
			c0-0.2-0.2-0.4-0.4-0.4H7.8c-0.2,0-0.4,0.2-0.4,0.4v18.2c0,0.2,0.2,0.4,0.4,0.4H47c0.2,0,0.4-0.2,0.4-0.4V28.4
			c0-0.2-0.2-0.4-0.4-0.4L34.6,28L34.6,28z"/>
		<path id="_171901256" d="M19.8,46.6c0,0.2,0.2,0.4,0.4,0.4c0.2,0,0.4-0.2,0.4-0.4V25.3c0-0.2-0.2-0.4-0.4-0.4c0,0,0,0,0,0l-1.8,0
			l9-9l9,9l-1.8,0v0c-0.2,0-0.4,0.2-0.4,0.4v0h0v21.3c0,0.2,0.2,0.4,0.4,0.4c0.2,0,0.4-0.2,0.4-0.4V25.7l2.4,0c0.1,0,0.2,0,0.3-0.1
			c0.2-0.2,0.2-0.4,0-0.6l0,0l-10-10l0,0c-0.2-0.2-0.4-0.2-0.6,0l0,0l-10,10C17,25.1,17,25.2,17,25.3c0,0.2,0.2,0.4,0.4,0.4v0l2.4,0
			L19.8,46.6L19.8,46.6z"/>
		<g>
			<path id="_171901160" d="M12,31.2h4.2c0.2,0,0.4,0.2,0.4,0.4v4.2c0,0.2-0.2,0.4-0.4,0.4H12c-0.2,0-0.4-0.2-0.4-0.4v-4.2
				C11.5,31.4,11.7,31.2,12,31.2z M15.7,32.1h-3.3v3.3h3.3V32.1z"/>
			<path id="_171901112" d="M12,38.7h4.2c0.2,0,0.4,0.2,0.4,0.4v4.2c0,0.2-0.2,0.4-0.4,0.4H12c-0.2,0-0.4-0.2-0.4-0.4v-4.2
				C11.5,38.9,11.7,38.7,12,38.7z M15.7,39.6h-3.3v3.3h3.3V39.6z"/>
		</g>
		<g>
			<path id="_171900968" d="M38.7,31.2h4.2c0.2,0,0.4,0.2,0.4,0.4v4.2c0,0.2-0.2,0.4-0.4,0.4h-4.2c-0.2,0-0.4-0.2-0.4-0.4v-4.2
				C38.3,31.4,38.5,31.2,38.7,31.2z M42.5,32.1h-3.3v3.3h3.3V32.1z"/>
			<path id="_171900920" d="M38.7,38.7h4.2c0.2,0,0.4,0.2,0.4,0.4v4.2c0,0.2-0.2,0.4-0.4,0.4h-4.2c-0.2,0-0.4-0.2-0.4-0.4v-4.2
				C38.3,38.9,38.5,38.7,38.7,38.7z M42.5,39.6h-3.3v3.3h3.3V39.6z"/>
		</g>
		<path id="_171900800" d="M27.4,20.9c0.9,0,1.7,0.4,2.2,0.9c0.6,0.6,0.9,1.4,0.9,2.2c0,0.9-0.4,1.7-0.9,2.2
			c-0.6,0.6-1.4,0.9-2.2,0.9s-1.7-0.4-2.2-0.9c-0.6-0.6-0.9-1.4-0.9-2.2c0-0.9,0.4-1.7,0.9-2.2C25.7,21.2,26.5,20.9,27.4,20.9z
			 M29.1,22.4c-0.4-0.4-1-0.7-1.7-0.7c-0.6,0-1.2,0.3-1.7,0.7c-0.4,0.4-0.7,1-0.7,1.7c0,0.6,0.3,1.2,0.7,1.7c0.4,0.4,1,0.7,1.7,0.7
			c0.6,0,1.2-0.3,1.7-0.7c0.4-0.4,0.7-1,0.7-1.7C29.8,23.4,29.5,22.8,29.1,22.4z"/>
		<path id="_171900728" d="M23.2,30.1h8.3c0.2,0,0.4,0.2,0.4,0.4V33c0,0.2-0.2,0.4-0.4,0.4h-8.3c-0.2,0-0.4-0.2-0.4-0.4v-2.5
			C22.8,30.2,23,30.1,23.2,30.1L23.2,30.1z M31.2,30.9h-7.5v1.7h7.5V30.9L31.2,30.9z"/>
		<path id="_171900656" d="M22.8,46.6c0,0.2,0.2,0.4,0.4,0.4c0.2,0,0.4-0.2,0.4-0.4V35.9h7.5v10.7c0,0.2,0.2,0.4,0.4,0.4
			c0.2,0,0.4-0.2,0.4-0.4V35.5c0-0.2-0.2-0.4-0.4-0.4h-8.3c-0.2,0-0.4,0.2-0.4,0.4L22.8,46.6L22.8,46.6z"/>
		<g>
			<path id="_171900536" d="M27.8,9.2c0-0.2-0.2-0.4-0.4-0.4C27.2,8.8,27,9,27,9.2v6c0,0.2,0.2,0.4,0.4,0.4c0.2,0,0.4-0.2,0.4-0.4
				V9.2L27.8,9.2z"/>
			<path id="_171900560" d="M27.6,8.8c-0.2-0.1-0.5,0-0.5,0.2s0,0.5,0.2,0.5l3.2,1.3l-3.2,1.3c-0.2,0.1-0.3,0.3-0.2,0.5
				c0.1,0.2,0.3,0.3,0.5,0.2l4.1-1.7c0.1,0,0.2-0.1,0.3-0.2c0.1-0.2,0-0.5-0.2-0.5l0,0L27.6,8.8L27.6,8.8z"/>
		</g>
	</g>
	<path class="st0" d="M36.4,24.9l-9-9l-9,9l1.8,0c0,0,0,0,0,0c0.2,0,0.4,0.2,0.4,0.4v20.9h2.2V35.5c0-0.2,0.2-0.4,0.4-0.4h8.3
		c0.2,0,0.4,0.2,0.4,0.4v10.7h2.2l0-20.9v0c0-0.2,0.2-0.4,0.4-0.4v0L36.4,24.9L36.4,24.9z M30.6,24.1c0,0.9-0.4,1.7-0.9,2.2
		c-0.6,0.6-1.4,0.9-2.2,0.9s-1.7-0.4-2.2-0.9c-0.6-0.6-0.9-1.4-0.9-2.2s0.4-1.7,0.9-2.2c0.6-0.6,1.4-0.9,2.2-0.9s1.7,0.4,2.2,0.9
		C30.2,22.4,30.6,23.2,30.6,24.1z M23.2,30.1h8.3c0.2,0,0.4,0.2,0.4,0.4V33c0,0.2-0.2,0.4-0.4,0.4h-8.3c-0.2,0-0.4-0.2-0.4-0.4v-2.5
		C22.8,30.2,23,30.1,23.2,30.1z"/>
	<path class="st0" d="M46.6,28.8H35v17.4h11.6L46.6,28.8L46.6,28.8z M42.9,31.2c0.2,0,0.4,0.2,0.4,0.4v4.2c0,0.2-0.2,0.4-0.4,0.4
		h-4.2c-0.2,0-0.4-0.2-0.4-0.4v-4.2c0-0.2,0.2-0.4,0.4-0.4L42.9,31.2L42.9,31.2z M38.7,38.7h4.2c0.2,0,0.4,0.2,0.4,0.4v4.2
		c0,0.2-0.2,0.4-0.4,0.4h-4.2c-0.2,0-0.4-0.2-0.4-0.4v-4.2C38.3,38.9,38.5,38.7,38.7,38.7z"/>
	<path class="st0" d="M19.8,46.2V28.8H8.2v17.4H19.8z M16.5,31.7v4.2c0,0.2-0.2,0.4-0.4,0.4H12c-0.2,0-0.4-0.2-0.4-0.4v-4.2
		c0-0.2,0.2-0.4,0.4-0.4h4.2C16.4,31.2,16.5,31.4,16.5,31.7z M12,38.7h4.2c0.2,0,0.4,0.2,0.4,0.4v4.2c0,0.2-0.2,0.4-0.4,0.4H12
		c-0.2,0-0.4-0.2-0.4-0.4v-4.2C11.5,38.9,11.7,38.7,12,38.7z"/>
	<polygon class="st1" points="27.8,11.9 30.5,10.9 27.8,9.8 	"/>
	<path class="st2" d="M29.1,22.4c-0.4-0.4-1-0.7-1.7-0.7c-0.6,0-1.2,0.3-1.7,0.7c-0.4,0.4-0.7,1-0.7,1.7c0,0.6,0.3,1.2,0.7,1.7
		s1,0.7,1.7,0.7c0.6,0,1.2-0.3,1.7-0.7c0.4-0.4,0.7-1,0.7-1.7C29.8,23.4,29.5,22.8,29.1,22.4z"/>
	<polygon class="st2" points="39.1,32.1 39.1,35.4 42.5,35.4 42.5,32.1 	"/>
	<polygon class="st2" points="42.5,39.6 39.1,39.6 39.1,42.9 42.5,42.9 	"/>
	<polygon class="st2" points="15.7,35.4 15.7,32.1 12.4,32.1 12.4,35.4 	"/>
	<polygon class="st2" points="15.7,39.6 12.4,39.6 12.4,42.9 15.7,42.9 	"/>
	<polygon class="st2" points="23.7,35.9 23.7,46.2 31.2,46.2 31.2,35.9 	"/>
	<polygon class="st2" points="23.7,32.6 31.2,32.6 31.2,30.9 23.7,30.9 	"/>
</g>
</svg>
