<?xml version="1.0" encoding="utf-8"?>
<!-- Generator: Adobe Illustrator 27.3.1, SVG Export Plug-In . SVG Version: 6.00 Build 0)  -->
<svg version="1.1" id="Layer_1" xmlns="http://www.w3.org/2000/svg" xmlns:xlink="http://www.w3.org/1999/xlink" x="0px" y="0px"
	 viewBox="0 0 54 54" style="enable-background:new 0 0 54 54;" xml:space="preserve">
<style type="text/css">
	.st0{fill:#EDEDED;}
	.st1{fill:#FFFFFF;}
	.st2{fill:#BD90BE;}
	.st3{fill:#D3B5D3;}
	.st4{fill:none;stroke:#333333;stroke-width:0.1328;stroke-linecap:round;stroke-linejoin:round;stroke-miterlimit:15.625;}
	.st5{fill:#FEE8B3;}
	.st6{fill:#FFF4D9;}
	.st7{fill:#516468;}
	.st8{fill:#7C8B8D;}
	.st9{fill:#FB8A8A;}
	.st10{fill:#FDDD8D;}
	.st11{fill:#7BDE9E;}
	.st12{fill:#F96363;}
	.st13{fill:#FDD267;}
	.st14{fill:#50D27E;}
	.st15{fill:#333333;}
</style>
<g>
	<path class="st0" d="M39.3,35.3c-0.1,0.3-0.4,0.4-0.7,0.4c-0.1,0-0.3,0-0.4-0.1l-11.1-6.4V42c0,0.4-0.3,0.8-0.8,0.8
		c-0.4,0-0.8-0.3-0.8-0.8V29.2l-11.1,6.4c-0.1,0.1-0.3,0.1-0.4,0.1c-0.3,0-0.5-0.1-0.7-0.4c-0.2-0.4-0.1-0.8,0.3-1.1l11.1-6.4
		l-11.1-6.4c-0.4-0.2-0.5-0.7-0.3-1.1c0.2-0.4,0.7-0.5,1.1-0.3l11.1,6.4V13.7c0-0.4,0.3-0.8,0.8-0.8c0.4,0,0.8,0.3,0.8,0.8v12.8
		l11.1-6.4c0.4-0.2,0.8-0.1,1.1,0.3c0.2,0.4,0.1,0.8-0.3,1.1l-11.1,6.4L39,34.2C39.4,34.5,39.5,34.9,39.3,35.3z"/>
	<g>
		<g>
			<path class="st1" d="M34.6,27.8c0,4.6-3.7,8.3-8.3,8.3s-8.3-3.7-8.3-8.3s3.7-8.3,8.3-8.3S34.6,23.3,34.6,27.8z"/>
		</g>
		<g>
			<path class="st0" d="M34.6,27.8c0,4.6-3.7,8.3-8.3,8.3c-2.9,0-5.4-1.5-6.9-3.7c1.3,0.9,2.9,1.4,4.6,1.4c4.6,0,8.3-3.7,8.3-8.3
				c0-1.7-0.5-3.3-1.4-4.6C33.2,22.4,34.6,24.9,34.6,27.8z"/>
		</g>
		<g>
			<g>
				<g>
					<path class="st2" d="M31.6,31.9v2.4c-1.4,1.2-3.2,1.9-5.2,1.9c-2,0-3.8-0.7-5.2-1.9v-2.4c0-1.8,1.5-3.3,3.3-3.3h3.8
						C30.1,28.5,31.6,30,31.6,31.9z"/>
				</g>
				<g>
					<path class="st3" d="M31.6,31.9v1.3c0-1.8-1.5-3.3-3.3-3.3h-3.8c-1.8,0-3.3,1.5-3.3,3.3v-1.3c0-1.8,1.5-3.3,3.3-3.3h3.8
						C30.1,28.5,31.6,30,31.6,31.9z"/>
				</g>
				<g>
					<path class="st4" d="M29.3,32.7"/>
				</g>
			</g>
			<g>
				<path class="st5" d="M28.7,24.6v2.3c0,1.2-1,2.2-2.2,2.2s-2.2-1-2.2-2.2v-2.3L28.7,24.6L28.7,24.6z"/>
			</g>
			<g>
				<rect x="24.3" y="24.6" class="st6" width="4.4" height="0.9"/>
			</g>
			<g>
				<path class="st7" d="M30.2,22.2l-1.5,2.4h-4.4v-1.4c0-0.6,0.5-1,1-1H30.2z"/>
			</g>
			<g>
				<path class="st8" d="M30.2,22.2l-0.6,1h-4.3c-0.6,0-1,0.5-1,1v-1c0-0.6,0.5-1,1-1H30.2z"/>
			</g>
		</g>
	</g>
	<g>
		<g>
			<g>
				<path class="st9" d="M28.9,13.7c0,1.4-1.2,2.6-2.6,2.6c-1.4,0-2.6-1.2-2.6-2.6c0-1.4,1.2-2.6,2.6-2.6
					C27.8,11.1,28.9,12.2,28.9,13.7z"/>
			</g>
			<g>
				<g>
					<path class="st9" d="M28.9,42c0,1.4-1.2,2.6-2.6,2.6c-1.4,0-2.6-1.2-2.6-2.6c0-1.4,1.2-2.6,2.6-2.6
						C27.8,39.4,28.9,40.6,28.9,42z"/>
				</g>
			</g>
		</g>
		<g>
			<g>
				<path class="st10" d="M15.4,18.5c1.2,0.7,1.7,2.3,0.9,3.5S14,23.7,12.8,23c-1.2-0.7-1.7-2.3-0.9-3.5
					C12.6,18.2,14.1,17.8,15.4,18.5z"/>
			</g>
			<g>
				<g>
					<path class="st10" d="M39.9,32.7c1.2,0.7,1.7,2.3,0.9,3.5c-0.7,1.2-2.3,1.7-3.5,0.9c-1.2-0.7-1.7-2.3-0.9-3.5
						C37.1,32.4,38.7,32,39.9,32.7z"/>
				</g>
			</g>
		</g>
		<g>
			<g>
				<path class="st11" d="M12.8,32.7c1.2-0.7,2.8-0.3,3.5,0.9c0.7,1.2,0.3,2.8-0.9,3.5c-1.2,0.7-2.8,0.3-3.5-0.9
					C11.1,35,11.6,33.4,12.8,32.7z"/>
			</g>
			<g>
				<g>
					<path class="st11" d="M37.3,18.5c1.2-0.7,2.8-0.3,3.5,0.9c0.7,1.2,0.3,2.8-0.9,3.5c-1.2,0.7-2.8,0.3-3.5-0.9
						C35.7,20.8,36.1,19.2,37.3,18.5z"/>
				</g>
			</g>
		</g>
	</g>
	<g>
		<g>
			<g>
				<path class="st12" d="M28.9,13.7c0,1.4-1.2,2.6-2.6,2.6c-1.1,0-2-0.7-2.4-1.6c0.3,0.1,0.6,0.2,1,0.2c1.4,0,2.6-1.2,2.6-2.6
					c0-0.3-0.1-0.7-0.2-1C28.3,11.6,28.9,12.6,28.9,13.7z"/>
			</g>
			<g>
				<g>
					<path class="st12" d="M28.9,42c0,1.4-1.2,2.6-2.6,2.6c-1.1,0-2-0.7-2.4-1.6c0.3,0.1,0.6,0.2,1,0.2c1.4,0,2.6-1.2,2.6-2.6
						c0-0.3-0.1-0.7-0.2-1C28.3,40,28.9,40.9,28.9,42z"/>
				</g>
			</g>
		</g>
		<g>
			<g>
				<path class="st13" d="M16.3,22c-0.7,1.2-2.3,1.7-3.5,0.9c-0.5-0.3-0.9-0.8-1.1-1.3c1.2,0.5,2.5,0,3.2-1.1
					c0.4-0.7,0.4-1.5,0.2-2.3c0.1,0,0.2,0.1,0.3,0.2C16.6,19.2,17,20.8,16.3,22z"/>
			</g>
			<g>
				<g>
					<path class="st13" d="M40.8,36.2c-0.7,1.2-2.3,1.7-3.5,0.9c-0.5-0.3-0.9-0.8-1.1-1.3c1.2,0.5,2.5,0,3.2-1.1
						c0.4-0.7,0.4-1.5,0.2-2.3c0.1,0,0.2,0.1,0.3,0.2C41.1,33.4,41.6,35,40.8,36.2z"/>
				</g>
			</g>
		</g>
		<g>
			<g>
				<path class="st14" d="M15.4,37.1c-1.2,0.7-2.8,0.3-3.5-0.9c-0.1-0.1-0.1-0.2-0.2-0.3c0.7,0.3,1.5,0.3,2.3-0.2
					c1.1-0.7,1.6-2,1.1-3.2c0.5,0.2,1,0.6,1.3,1.1C17,34.9,16.6,36.4,15.4,37.1z"/>
			</g>
			<g>
				<g>
					<path class="st14" d="M39.9,23c-1.2,0.7-2.8,0.3-3.5-0.9c-0.1-0.1-0.1-0.2-0.2-0.3c0.7,0.3,1.5,0.3,2.3-0.2
						c1.1-0.7,1.6-2,1.1-3.2c0.5,0.2,1,0.6,1.3,1.1C41.6,20.7,41.1,22.3,39.9,23z"/>
				</g>
			</g>
		</g>
	</g>
	<path class="st15" d="M40,32.5c-1-0.6-2.3-0.5-3.2,0.2l-2.6-1.5c0.4-1,0.7-2.2,0.7-3.3s-0.2-2.3-0.7-3.4l2.6-1.5
		c0.9,0.7,2.2,0.8,3.2,0.2c1.4-0.8,1.8-2.5,1-3.9c-0.8-1.4-2.5-1.8-3.9-1c-1,0.6-1.6,1.7-1.4,2.9l-2.6,1.5c-1.4-1.8-3.4-3.1-5.8-3.3
		v-3c1.1-0.4,1.8-1.4,1.8-2.6c0-1.6-1.3-2.8-2.8-2.8s-2.8,1.3-2.8,2.8c0,1.2,0.8,2.2,1.8,2.6v3c-2.4,0.3-4.4,1.5-5.8,3.3l-2.6-1.5
		c0.2-1.1-0.3-2.3-1.4-2.9c-1.4-0.8-3.1-0.3-3.9,1c-0.8,1.4-0.3,3.1,1,3.9c1,0.6,2.3,0.5,3.2-0.2l2.6,1.5c-0.4,1-0.7,2.2-0.7,3.3
		c0,1.2,0.2,2.3,0.7,3.3l-2.6,1.5c-0.9-0.7-2.2-0.8-3.2-0.2c-1.4,0.8-1.8,2.5-1,3.9c0.8,1.3,2.5,1.8,3.9,1c1-0.6,1.6-1.8,1.4-2.9
		l2.6-1.5c1.4,1.8,3.4,3.1,5.8,3.3v3c-1.1,0.4-1.8,1.4-1.8,2.6c0,1.6,1.3,2.8,2.8,2.8s2.8-1.3,2.8-2.8c0-1.2-0.8-2.2-1.8-2.6v-3
		c2.4-0.3,4.4-1.5,5.8-3.3l2.6,1.5c-0.2,1.1,0.3,2.3,1.4,2.9c1.4,0.8,3.1,0.3,3.9-1C41.9,35,41.4,33.2,40,32.5z M37.5,18.7
		c1.1-0.6,2.5-0.3,3.2,0.9c0.6,1.1,0.3,2.5-0.9,3.2c-1.1,0.6-2.5,0.3-3.2-0.9C36,20.8,36.3,19.4,37.5,18.7z M35.9,21.7
		c0.1,0.2,0.1,0.3,0.2,0.5c0.1,0.2,0.2,0.3,0.3,0.4L34,24c-0.2-0.3-0.3-0.6-0.5-0.9L35.9,21.7z M24,13.7c0-1.3,1-2.3,2.3-2.3
		c1.3,0,2.3,1,2.3,2.3s-1,2.3-2.3,2.3S24,14.9,24,13.7z M26.3,16.5c0.2,0,0.3,0,0.5,0v2.8c-0.2,0-0.3,0-0.5,0c-0.2,0-0.3,0-0.5,0
		v-2.9C26,16.5,26.2,16.5,26.3,16.5z M12.9,22.8c-1.1-0.6-1.5-2.1-0.9-3.2c0.6-1.1,2.1-1.5,3.2-0.9c1.1,0.6,1.5,2.1,0.9,3.2
		C15.4,23,14,23.4,12.9,22.8z M16.2,22.6c0.1-0.1,0.2-0.3,0.3-0.4s0.2-0.3,0.2-0.5l2.5,1.4c-0.2,0.3-0.4,0.6-0.5,0.9L16.2,22.6z
		 M15.2,36.9c-1.1,0.6-2.5,0.3-3.2-0.9c-0.6-1.1-0.3-2.5,0.9-3.2c1.1-0.6,2.5-0.3,3.2,0.9C16.7,34.9,16.3,36.3,15.2,36.9z M16.7,34
		c-0.1-0.2-0.1-0.3-0.2-0.5c-0.1-0.2-0.2-0.3-0.3-0.4l2.5-1.4c0.2,0.3,0.3,0.6,0.5,0.9L16.7,34z M28.7,42c0,1.3-1,2.3-2.3,2.3
		c-1.3,0-2.3-1-2.3-2.3s1-2.3,2.3-2.3C27.6,39.7,28.7,40.7,28.7,42z M26.3,39.2c-0.2,0-0.4,0-0.5,0v-2.8c0.2,0,0.3,0,0.5,0
		s0.3,0,0.5,0v2.8C26.7,39.2,26.5,39.2,26.3,39.2z M31.3,34.1c-0.6,0.5-1.3,0.9-2,1.2v-3.5c0-0.1-0.1-0.3-0.3-0.3
		c-0.1,0-0.3,0.1-0.3,0.3v3.7c-0.8,0.2-1.6,0.4-2.4,0.4s-1.7-0.1-2.4-0.4v-3.7c0-0.1-0.1-0.3-0.3-0.3c-0.1,0-0.3,0.1-0.3,0.3v3.5
		c-0.7-0.3-1.4-0.7-2-1.2v-2.3c0-1.7,1.4-3.1,3.1-3.1h0.5c0.4,0.4,1,0.6,1.6,0.6c0.6,0,1.2-0.2,1.6-0.6h0.1c1.7,0,3.1,1.4,3.1,3.1
		L31.3,34.1L31.3,34.1z M28.5,24.9v2c0,1.1-0.9,1.9-1.9,1.9s-1.9-0.9-1.9-1.9v-2H28.5z M24.6,24.4v-1.1c0-0.4,0.3-0.8,0.8-0.8h4.4
		l-1.2,1.9H24.6z M31.8,33.7v-1.8c0-1.9-1.4-3.4-3.3-3.6c0.3-0.4,0.4-0.9,0.4-1.4v-2.2l1.5-2.4c0.1-0.1,0.1-0.2,0-0.3
		c0-0.1-0.1-0.1-0.2-0.1h-4.9c-0.7,0-1.3,0.6-1.3,1.3v3.7c0,0.5,0.2,1,0.4,1.4h0c-2,0-3.6,1.6-3.6,3.6v1.8c-1.6-1.5-2.5-3.5-2.5-5.9
		c0-4.4,3.6-8,8-8s8,3.6,8,8C34.4,30.1,33.4,32.2,31.8,33.7z M33.5,32.5c0.2-0.3,0.4-0.6,0.5-0.9l2.5,1.4c-0.1,0.1-0.2,0.3-0.3,0.4
		C36.1,33.6,36,33.8,36,34L33.5,32.5z M40.6,36.1c-0.6,1.1-2.1,1.5-3.2,0.9c-1.1-0.6-1.5-2.1-0.9-3.2s2.1-1.5,3.2-0.9
		C40.9,33.5,41.3,35,40.6,36.1z"/>
</g>
</svg>
