<?xml version="1.0" encoding="utf-8"?>
<!-- Generator: Adobe Illustrator 27.3.1, SVG Export Plug-In . SVG Version: 6.00 Build 0)  -->
<svg version="1.1" id="Layer_1" xmlns="http://www.w3.org/2000/svg" xmlns:xlink="http://www.w3.org/1999/xlink" x="0px" y="0px"
	 viewBox="0 0 54 54" style="enable-background:new 0 0 54 54;" xml:space="preserve">
<style type="text/css">
	.st0{fill:#BE90BE;}
	.st1{fill:#A76BA7;}
	.st2{fill:#E9DAE9;}
	.st3{fill:#D3B5D3;}
	.st4{fill:#333333;}
	.st5{fill:#FB8A8A;}
	.st6{fill:#F96363;}
	.st7{fill:#7BDE9E;}
	.st8{fill:#A7E9BF;}
	.st9{fill:#50D27E;}
	.st10{fill:#FDDD8D;}
	.st11{fill:#FEE8B3;}
	.st12{fill:#FDD267;}
</style>
<g id="_x30_23_Sale_Item">
	<g>
		<g>
			<g>
				<g>
					<g>
						<g>
							<g>
								<path class="st0" d="M44,18.2l-3.6,3.6c-0.3,0.3-0.9,0.3-1.2,0l-1.4-1.4v19.5H17.5V20.4l-1.4,1.4c-0.3,0.3-0.9,0.3-1.2,0
									l-3.6-3.6c-0.3-0.3-0.3-0.9,0-1.2l6-6c0.2-0.2,0.4-0.3,0.6-0.3h3.8c0.3,2.4,2.8,4.2,5.9,4.2h0c3.1,0,5.6-1.9,5.9-4.2h3.8
									c0.2,0,0.4,0.1,0.6,0.3l6,6C44.3,17.3,44.3,17.9,44,18.2z"/>
							</g>
						</g>
					</g>
				</g>
				<g>
					<g>
						<g>
							<g>
								<path class="st1" d="M44,18.2l-3.7,3.7c-0.3,0.3-0.9,0.3-1.2,0l-1.4-1.4v19.5H17.6v-5c10.3-1.5,18.2-10.4,18.2-21.2
									c0-1-0.1-2.1-0.2-3.1h1.8c0.2,0,0.4,0.1,0.6,0.3l6,6C44.3,17.3,44.3,17.9,44,18.2z"/>
							</g>
						</g>
					</g>
				</g>
			</g>
			<g>
				<g>
					<path class="st2" d="M35.7,19.7v4.8c0,0.2-0.1,0.3-0.2,0.4L33.1,26c-0.1,0-0.2,0-0.3,0l-2.3-1.1c-0.1-0.1-0.2-0.2-0.2-0.4v-4.8
						H35.7L35.7,19.7z"/>
				</g>
				<g>
					<g>
						<g>
							<g>
								<path class="st3" d="M35.7,19.7v4.8c0,0.2-0.1,0.3-0.2,0.4L33.1,26c-0.1,0-0.2,0-0.3,0l-0.6-0.3c1.2-1.8,2.1-3.9,2.7-6
									L35.7,19.7L35.7,19.7z"/>
							</g>
						</g>
					</g>
				</g>
				<path class="st4" d="M35.7,19.4h-5.4c-0.2,0-0.3,0.1-0.3,0.3v4.8c0,0.3,0.2,0.5,0.4,0.6l2.3,1.1c0.1,0,0.2,0.1,0.3,0.1
					c0.1,0,0.2,0,0.3-0.1l2.3-1.1c0.2-0.1,0.4-0.4,0.4-0.6v-4.8C36,19.6,35.8,19.4,35.7,19.4z M30.5,20h4.8v1h-4.8V20z M35.4,24.6
					c0,0,0,0.1-0.1,0.1L33,25.7c0,0-0.1,0-0.1,0l-2.3-1.1c0,0-0.1-0.1-0.1-0.1v-3h4.8V24.6z"/>
			</g>
		</g>
		<g>
			<g>
				<g>
					<polygon class="st5" points="13.5,38 10.3,45.8 12.4,45 13.4,47.1 17.1,38 					"/>
				</g>
				<g>
					<polygon class="st5" points="21.7,38 18.1,38 21.8,47.1 22.7,45 24.9,45.8 					"/>
				</g>
			</g>
			<g>
				<path class="st6" d="M23.1,41.3c-0.6,0.2-1.4,0.2-2.5,0.1c-0.2,0.2-0.5,0.6-0.8,0.9L18.1,38h3.6L23.1,41.3z"/>
			</g>
			<g>
				<path class="st6" d="M13.5,38h3.6l-1.7,4.2c-0.2-0.3-0.5-0.5-0.8-0.9c-0.7,0.2-1.6,0.1-2.4-0.2L13.5,38z"/>
			</g>
			<g>
				<path class="st7" d="M25.4,34.2c0,1-1.6,1.6-2,2.4c-0.4,0.9,0.3,2.5-0.3,3.1c-0.7,0.7-2.2,0-3.1,0.3c-0.8,0.3-1.5,2-2.4,2
					c-1,0-1.6-1.6-2.4-2c-0.9-0.4-2.5,0.3-3.1-0.3s0-2.2-0.3-3.1c-0.3-0.8-2-1.5-2-2.4c0-1,1.6-1.6,2-2.4c0.4-0.9-0.3-2.5,0.3-3.1
					c0.7-0.7,2.2,0,3.1-0.3c0.8-0.3,1.5-2,2.4-2c1,0,1.6,1.6,2.4,2c0.9,0.4,2.5-0.3,3.1,0.3c0.7,0.7,0,2.2,0.3,3.1
					C23.8,32.6,25.4,33.2,25.4,34.2z"/>
			</g>
			<g>
				<path class="st8" d="M20.5,28.4c-0.3,3.9-3.6,6.9-7.5,6.9c-1.1,0-2.1-0.2-3.1-0.7c-0.1-0.1-0.1-0.3-0.1-0.5c0-1,1.6-1.6,2-2.4
					c0.4-0.9-0.3-2.5,0.3-3.1c0.7-0.7,2.2,0,3.1-0.3c0.8-0.3,1.5-2,2.4-2c1,0,1.6,1.6,2.4,2C20.2,28.4,20.3,28.4,20.5,28.4z"/>
			</g>
			<g>
				<path class="st9" d="M25.4,34.2c0,1-1.6,1.6-2,2.4c-0.4,0.9,0.3,2.5-0.3,3.1c-0.7,0.7-2.2,0-3.1,0.3c-0.8,0.3-1.5,2-2.4,2
					c-1,0-1.6-1.6-2.4-2c-0.9-0.4-2.5,0.3-3.1-0.3c-0.4-0.4-0.3-1-0.3-1.7c0.4,0.1,0.9,0.1,1.3,0.1c5.3,0,9.7-4.2,9.9-9.5
					c0,0,0,0,0.1,0.1c0.7,0.7,0,2.2,0.3,3.1C23.8,32.6,25.4,33.2,25.4,34.2z"/>
			</g>
			<path class="st4" d="M44.2,16.8l-6-6c-0.2-0.2-0.5-0.3-0.8-0.3h-3.8c-0.1,0-0.3,0.1-0.3,0.3c-0.3,2.3-2.7,4-5.6,4h0
				c-2.9,0-5.3-1.7-5.6-4c0-0.1-0.1-0.3-0.3-0.3h-3.8c-0.3,0-0.6,0.1-0.8,0.3l-6,6c-0.2,0.2-0.3,0.5-0.3,0.8c0,0.3,0.1,0.6,0.3,0.8
				l3.6,3.6c0.4,0.4,1.2,0.4,1.6,0l0.9-0.9v5c-0.5,0.2-0.9,0.6-1.3,1.1c-0.3,0.4-0.6,0.7-0.9,0.8c-0.3,0.1-0.8,0.1-1.3,0
				c-0.7-0.1-1.5-0.1-1.9,0.3c-0.5,0.5-0.4,1.2-0.3,1.9c0,0.5,0.1,1-0.1,1.3c-0.1,0.3-0.5,0.6-0.8,0.9c-0.6,0.5-1.1,1-1.1,1.6
				c0,0.7,0.6,1.2,1.1,1.6c0.4,0.3,0.7,0.6,0.8,0.9c0.1,0.3,0.1,0.8,0.1,1.3c-0.1,0.7-0.1,1.5,0.3,1.9c0.1,0.1,0.3,0.2,0.4,0.3
				L10,45.7c0,0.1,0,0.2,0.1,0.3c0.1,0.1,0.2,0.1,0.3,0.1l1.9-0.7l0.9,1.8c0,0.1,0.1,0.2,0.3,0.2h0c0.1,0,0.2-0.1,0.3-0.2l2.4-5.9
				c0.4,0.5,0.9,1,1.5,1c0.6,0,1.1-0.5,1.5-1l2.4,5.9c0,0.1,0.1,0.2,0.3,0.2h0c0.1,0,0.2-0.1,0.3-0.2l0.9-1.8l1.9,0.7
				c0.1,0,0.2,0,0.3-0.1c0.1-0.1,0.1-0.2,0.1-0.3l-2.2-5.5h14.8c0.2,0,0.3-0.1,0.3-0.3V21.1l0.9,0.9c0.4,0.4,1.2,0.4,1.6,0l3.6-3.6
				c0.2-0.2,0.3-0.5,0.3-0.8C44.5,17.3,44.4,17,44.2,16.8z M13.4,46.4l-0.7-1.5c0-0.1-0.1-0.2-0.3-0.2c0,0-0.1,0-0.1,0l-1.5,0.6l2-5
				c0.3,0,0.6,0,0.9,0c0.5,0,1-0.1,1.3,0.1c0.2,0.1,0.4,0.3,0.6,0.5L13.4,46.4z M22.8,44.7c-0.1-0.1-0.3,0-0.4,0.1l-0.7,1.5
				l-2.2-5.6c0.2-0.2,0.4-0.4,0.6-0.5c0.3-0.1,0.8-0.1,1.3-0.1c0.3,0,0.6,0,0.9,0l2,5L22.8,44.7z M23.1,38c0,0.6,0.1,1.2-0.2,1.5
				c-0.3,0.3-0.9,0.2-1.5,0.2c-0.5,0-1.1-0.1-1.5,0.1c-0.4,0.2-0.8,0.6-1.1,1c-0.4,0.5-0.8,0.9-1.2,0.9c-0.4,0-0.8-0.5-1.2-0.9
				c-0.3-0.4-0.7-0.8-1.1-1c-0.2-0.1-0.5-0.1-0.8-0.1c-0.2,0-0.5,0-0.7,0c-0.6,0-1.2,0.1-1.5-0.2C12,39.2,12,38.6,12.1,38
				c0-0.5,0.1-1.1-0.1-1.5c-0.2-0.4-0.6-0.8-1-1.1c-0.5-0.4-0.9-0.8-0.9-1.2c0-0.4,0.5-0.8,0.9-1.2c0.4-0.3,0.8-0.7,1-1.1
				c0.2-0.4,0.1-1,0.1-1.6c0-0.6-0.1-1.2,0.2-1.5c0.3-0.3,0.9-0.2,1.5-0.2c0.5,0,1.1,0.1,1.6-0.1c0.4-0.2,0.8-0.6,1.1-1
				c0.4-0.5,0.8-0.9,1.2-0.9c0.4,0,0.8,0.5,1.2,0.9c0.3,0.4,0.7,0.8,1.1,1c0.4,0.2,1,0.1,1.5,0.1c0.6,0,1.2-0.1,1.5,0.2
				c0.3,0.3,0.2,0.9,0.2,1.5c0,0.5-0.1,1.1,0.1,1.6c0.2,0.4,0.6,0.8,1,1.1c0.5,0.4,0.9,0.8,0.9,1.2c0,0.4-0.5,0.8-0.9,1.2
				c-0.4,0.3-0.8,0.7-1,1.1C23,36.9,23,37.5,23.1,38z M43.8,18l-3.6,3.6c-0.2,0.2-0.6,0.2-0.8,0l-1.4-1.4c-0.1-0.1-0.2-0.1-0.3-0.1
				c-0.1,0-0.2,0.1-0.2,0.3v19.2H23.5c0.2-0.5,0.2-1.1,0.1-1.6c0-0.5-0.1-1,0-1.3c0.1-0.3,0.5-0.6,0.8-0.9c0.6-0.5,1.1-1,1.1-1.6
				c0-0.7-0.6-1.2-1.1-1.6c-0.4-0.3-0.7-0.6-0.8-0.9c-0.1-0.3-0.1-0.8-0.1-1.3c0.1-0.7,0.1-1.5-0.3-1.9c-0.5-0.5-1.2-0.4-1.9-0.3
				c-0.5,0-1,0.1-1.3,0c-0.3-0.1-0.6-0.5-0.9-0.8c-0.4-0.5-0.8-1-1.4-1.1v-5.6c0-0.1-0.1-0.2-0.2-0.3c-0.1,0-0.2,0-0.3,0.1l-1.4,1.4
				c-0.2,0.2-0.6,0.2-0.8,0L11.5,18c-0.1-0.1-0.2-0.3-0.2-0.4c0-0.2,0.1-0.3,0.2-0.4l6-6c0.1-0.1,0.3-0.2,0.4-0.2h3.6
				c0.4,2.4,3,4.2,6.1,4.2h0c3.1,0,5.7-1.8,6.1-4.2h3.6c0.2,0,0.3,0.1,0.4,0.2l6,6c0.1,0.1,0.2,0.3,0.2,0.4
				C43.9,17.7,43.9,17.9,43.8,18z"/>
			<g>
				<path class="st10" d="M21.9,34.2c0,2.4-1.9,4.3-4.3,4.3c-2.4,0-4.3-1.9-4.3-4.3s1.9-4.3,4.3-4.3C20,29.9,21.9,31.8,21.9,34.2z"
					/>
			</g>
			<g>
				<path class="st11" d="M18.5,31.4c0,2-1.6,3.6-3.6,3.6c-0.6,0-1.1-0.1-1.5-0.3c0-0.2,0-0.3,0-0.5c0-2.4,1.9-4.3,4.3-4.3
					c0.2,0,0.4,0,0.5,0C18.3,30.4,18.5,30.9,18.5,31.4z"/>
			</g>
			<g>
				<path class="st12" d="M21.9,34.2c0,2.4-1.9,4.3-4.3,4.3c-1.6,0-3.1-0.9-3.8-2.3c0.6,0.3,1.3,0.5,2,0.5c2.4,0,4.3-1.9,4.3-4.3
					c0-0.7-0.2-1.4-0.5-2C21,31.1,21.9,32.5,21.9,34.2z"/>
			</g>
			<g>
				<path class="st4" d="M17.6,38.7c-2.5,0-4.6-2.1-4.6-4.6s2.1-4.6,4.6-4.6s4.6,2.1,4.6,4.6S20.1,38.7,17.6,38.7z M17.6,30.1
					c-2.2,0-4,1.8-4,4c0,2.2,1.8,4,4,4s4-1.8,4-4S19.8,30.1,17.6,30.1z"/>
			</g>
		</g>
	</g>
</g>
</svg>
