<?xml version="1.0" encoding="utf-8"?>
<!-- Generator: Adobe Illustrator 27.3.1, SVG Export Plug-In . SVG Version: 6.00 Build 0)  -->
<svg version="1.1" id="Layer_1" xmlns="http://www.w3.org/2000/svg" xmlns:xlink="http://www.w3.org/1999/xlink" x="0px" y="0px"
	 viewBox="0 0 512 512" style="enable-background:new 0 0 512 512;" xml:space="preserve">
<style type="text/css">
	.st0{fill:#330033;}
</style>
<path class="st0" d="M256.2,0.5c-67.8,0-132.9,26.9-180.8,74.9S0.5,188.4,0.5,256.2s26.9,132.9,74.9,180.8s113,74.9,180.8,74.9
	s132.9-26.9,180.8-74.9s74.9-113,74.9-180.8s-26.9-132.9-74.9-180.8S324.1,0.5,256.2,0.5L256.2,0.5z M131.4,164.6h247.5
	c1.3,0.1,2.5,1,3,2.2c0.5,1.3,0.1,2.7-0.9,3.6l-123.8,96.9c-1.2,1-3,1-4.2,0l-123.7-96.7c-1.1-0.9-1.6-2.4-1.1-3.8
	C128.7,165.6,129.9,164.6,131.4,164.6L131.4,164.6z M110.6,333V175.7c-0.1-1.4,0.7-2.8,2-3.3c1.3-0.6,2.8-0.3,3.8,0.8l95.5,84.3
	c0.8,0.6,1.2,1.6,1.2,2.6c0,1-0.5,2-1.2,2.6l-95.9,72.9c-1,0.8-2.4,0.9-3.5,0.3C111.4,335.5,110.6,334.3,110.6,333L110.6,333z
	 M378.9,347.9H131.4c-1.3-0.1-2.5-1-3-2.2c-0.5-1.3-0.1-2.7,0.9-3.6l95.7-75c1.2-1,3-1,4.2,0l23.9,18.6c1.2,1,3,1,4.2,0l23.9-18.6
	c1.2-1,3-1,4.2,0l95.6,74.8c1.2,0.9,1.6,2.4,1.1,3.8C381.7,347,380.4,347.9,378.9,347.9L378.9,347.9z M401.9,333
	c0,1.3-0.7,2.4-1.9,3c-1.1,0.6-2.5,0.4-3.5-0.3l-95.7-72.9c-0.8-0.6-1.2-1.6-1.2-2.6c0-1,0.5-2,1.2-2.6l95.3-84.3
	c1-1,2.5-1.3,3.8-0.8c1.3,0.6,2.1,1.9,2,3.3L401.9,333z"/>
</svg>
