<?xml version="1.0" encoding="utf-8"?>
<!-- Generator: Adobe Illustrator 27.3.1, SVG Export Plug-In . SVG Version: 6.00 Build 0)  -->
<svg version="1.1" id="Layer_1" xmlns="http://www.w3.org/2000/svg" xmlns:xlink="http://www.w3.org/1999/xlink" x="0px" y="0px"
	 viewBox="0 0 512 512" style="enable-background:new 0 0 512 512;" xml:space="preserve">
<style type="text/css">
	.st0{fill:#330033;}
</style>
<path class="st0" d="M256.5,0c-67.9,0-133,27-181,75c-48,48-75,113.1-75,181s27,133,75,181c48,48,113.1,75,181,75s133-27,181-75
	c48-48,75-113.1,75-181c0-44.9-11.8-89.1-34.3-128c-22.5-38.9-54.8-71.2-93.7-93.7C345.6,11.8,301.4,0,256.5,0L256.5,0z M377.9,329
	c-6.8,11.7-15.8,22.1-26.4,30.5c-8.5,7.5-18.7,12.9-29.8,15.7c-13.2,2.5-26.8,1.3-39.4-3.5c-22.1-7.3-42.2-19.7-58.6-36.1
	C210.5,323.6,194,305,194,305v0c-15.2-15.7-28.1-33.4-38.6-52.5c-7.9-14.3-14-29.6-18.1-45.5c-3.6-13.1-4.8-26.7-3.5-40.2
	c0.7-5.6,1.9-11.2,3.5-16.6c6.6-21.6,25.7-39.1,39-49.1c3.2-2.4,7.3-3.5,11.3-2.9c4,0.6,7.6,2.8,10,6l33,44.9v0
	c3,4.2,3.7,9.7,1.7,14.6c-4.1,12-11.2,22.8-20.6,31.3c-2.4,2-4.8,3.9-7.4,5.7l-0.6,0.5c-2.8,2.2-13.4,12,0,30.1v0
	c17.4,23.9,36.5,46.5,57.2,67.6c4.5,4.1,16.6,13,27.4-1.7c4.5-7.2,20.1-35.4,31.1-29.5c2.7,1.4,37.2,28,54.2,42.2
	C379.7,314.4,381.4,322.5,377.9,329L377.9,329z"/>
</svg>
